<?xml version="1.0" encoding="utf-8"?><svg viewBox="0 0 49 34" xmlns="http://www.w3.org/2000/svg" xmlns:xlink="http://www.w3.org/1999/xlink"><style>:root>svg{display:none}:root>svg:target{display:block}</style><svg viewBox="0 0 49 16" id="arrow-left" xmlns="http://www.w3.org/2000/svg"><path d="M.293 7.293a1 1 0 000 1.414l6.364 6.364a1 1 0 001.414-1.414L2.414 8l5.657-5.657A1 1 0 006.657.93L.293 7.293zM49 7H1v2h48V7z"/></svg><svg viewBox="0 0 49 16" id="arrow-right" xmlns="http://www.w3.org/2000/svg"><path d="M48.707 8.707a1 1 0 000-1.414L42.343.929a1 1 0 10-1.414 1.414L46.586 8l-5.657 5.657a1 1 0 001.414 1.414l6.364-6.364zM0 9h48V7H0v2z"/></svg><svg viewBox="0 0 34 34" id="minus" xmlns="http://www.w3.org/2000/svg"><path d="M17 34C7.626 34 0 26.374 0 17 0 7.626 7.626 0 17 0c9.374 0 17 7.626 17 17 0 9.374-7.626 17-17 17zm0-31.875C8.798 2.125 2.125 8.798 2.125 17c0 8.203 6.673 14.875 14.875 14.875 8.203 0 14.875-6.672 14.875-14.875 0-8.202-6.672-14.875-14.875-14.875z"/><path d="M24.438 18.063H9.563a1.063 1.063 0 010-2.125h14.874a1.063 1.063 0 010 2.124z"/></svg><svg viewBox="0 0 34 34" id="plus" xmlns="http://www.w3.org/2000/svg"><path d="M17 34C7.626 34 0 26.374 0 17 0 7.626 7.626 0 17 0c9.374 0 17 7.626 17 17 0 9.374-7.626 17-17 17zm0-31.875C8.798 2.125 2.125 8.798 2.125 17c0 8.203 6.673 14.875 14.875 14.875 8.203 0 14.875-6.672 14.875-14.875 0-8.202-6.672-14.875-14.875-14.875z"/><path d="M24.438 18.063H9.563a1.063 1.063 0 010-2.125h14.874a1.063 1.063 0 010 2.124z"/><path d="M17 25.5a1.063 1.063 0 01-1.063-1.063V9.563a1.063 1.063 0 012.126 0v14.876c0 .586-.476 1.062-1.063 1.062z"/></svg></svg>